<svg xmlns="http://www.w3.org/2000/svg" xmlns:xlink="http://www.w3.org/1999/xlink" version="1.1" id="layer" x="0px" y="0px" style="enable-background:new -153 -46 652 652;" xml:space="preserve" viewBox="-132 203.5 600.1 144.2">
<style type="text/css">
	.st0{fill:#F05282;}
	.st1{fill:#FFFFFF;}
</style>
<rect x="-132" y="204.3" class="st0" width="70.2" height="141.9"/>
<g>
	<path class="st1" d="M-97.5,322.6c9.3,0,15.2-6,15.2-14.2c0-4.2-2.2-7.6-4-8.8c-1.2-0.8-1-0.6-2.5-1.1V296c0,0,2.9-0.1,5.7,2.3   c3.4,2.9,5,7.3,5,11.1c0,10.7-7.2,19.4-18,19.4c-9.8,0-19-7.7-19-19.9c0-4,1-8,2.8-11.5h8.3v2.5c-5.7,0.3-8.2,4.7-8.2,9.3   C-112.2,314.5-108.1,322.6-97.5,322.6"/>
	<path class="st1" d="M-81.7,291.2c0-1.3-0.4-1.6-1.2-1.6c-1.8-0.1-3.6-0.2-5.4-0.2h-16.4c-2,0-4,0-6,0.1c-1,0-1.2,0.6-1.2,1.5v3.2   h-2.3v-14.9h2.3v3.2c0,1.3,0.5,1.5,1.2,1.5c2,0.1,4,0.1,6,0.1h16.4c2.4,0,5.5-0.1,5.9-0.3c0.7-0.3,0.7-1,0.7-1.5v-3.1h2.3v14.9   h-2.3V291.2z"/>
	<path class="st1" d="M-81.7,264.7v-3.5h2.3v15.1h-2.3v-3.2c0-0.9-0.2-1.4-1.2-1.5c-1.8-0.1-3.6-0.2-5.4-0.2h-16.4   c-5.6,0-6.5,0-6.9,0.3c-0.3,0.3-0.4,0.6-0.4,0.8v3.8h-2.3v-7.7c0-5.9,0-11.9-0.1-17.9v-0.1c0-0.4,0.2-0.5,0.5-0.5h7.1v2.1   c-2.9,0.2-3.8,0.1-4,1.6c-0.3,3.4-0.5,6.9-0.5,10.6v0.5c0,0.6,0.1,1.1,0.9,1.1h10.7v-9.2c0-0.7-1.1-1.3-2.4-1.4v-1.9   c0,0,8.1,0.9,8.1,1.4v2l-2.1-0.3c-0.5,0-0.9,0.5-0.9,1.3v8h8.9C-82.2,266.3-81.7,266.3-81.7,264.7"/>
	<path class="st1" d="M-81.7,236.7v-3.5h2.3v15.1h-2.3V245c0-0.9-0.2-1.4-1.2-1.5c-1.8-0.1-3.6-0.2-5.4-0.2h-16.4   c-5.6,0-6.5,0-6.9,0.3c-0.3,0.3-0.4,0.6-0.4,0.8v3.8h-2.3v-7.7c0-5.9,0-11.9-0.1-17.9v0c0-0.4,0.2-0.5,0.5-0.5h7.1v2.1   c-2.9,0.2-3.8,0.1-4,1.6c-0.3,3.4-0.5,6.9-0.5,10.6v0.5c0,0.6,0.1,1.1,0.9,1.1h10.7V229c0-0.7-1.1-1.3-2.4-1.4v-1.9   c0,0,8.1,0.9,8.1,1.4v2l-2.1-0.3c-0.5,0-0.9,0.5-0.9,1.3v8h8.9C-82.2,238.2-81.7,238.3-81.7,236.7"/>
	<path d="M-27.5,222c0,9.7,6.1,16.4,14.7,16.4c4.4,0,8.2-1.8,9.7-5c0.6-1.4,0.7-3.3,0.9-4.5h2v9.6c-4.6,2.6-9.3,3.5-13.3,3.5   c-11.1,0-20.4-7.5-20.4-18.7c0-10.2,8-19.8,20.7-19.8c4.2,0,8.3,1.1,12,3v8.7h-2.6c-0.3-5.9-4.9-8.6-9.7-8.6   C-19.1,206.6-27.5,210.9-27.5,222"/>
	<path d="M7.7,238.4c1.4,0,1.6-0.4,1.7-1.3c0.1-1.8,0.2-3.8,0.2-5.6v-17.1c0-0.3,0-6.3-0.2-6.8c-0.2-0.7-1-0.8-1.6-0.8H4.5v-2.4H20   v2.4h-3.4c-1.3,0-1.6,0.5-1.6,1.3c-0.1,2.1-0.1,4.2-0.1,6.3v4.7c0,0.2,0.1,0.4,0.4,0.4c1.4,0.1,2.9,0.1,4.3,0.1h10.9   c0.2,0,4.3,0,4.4-0.1c0.2-0.1,0.2-0.3,0.2-0.4v-4.6c0-0.3,0-6.3-0.2-6.8c-0.2-0.7-0.9-0.8-1.6-0.8h-3.3v-2.4h15.5v2.4h-3.4   c-1.3,0-1.6,0.5-1.6,1.3c-0.1,2.1-0.1,4.2-0.1,6.3v17.1c0,2.5,0.1,5.7,0.3,6.2c0.3,0.7,1.1,0.7,1.5,0.7h3.2v2.4H30.2v-2.4h3.2   c1.4,0,1.6-0.4,1.7-1.3c0.1-1.8,0.2-3.8,0.2-5.6v-8.9c0-0.3-0.1-0.4-2.5-0.4H19.6c-0.1,0-4.2,0-4.4,0.1c-0.3,0.1-0.3,0.3-0.3,0.4   v8.8c0,2.5,0.1,5.7,0.3,6.2c0.3,0.7,1.1,0.7,1.5,0.7H20v2.4H4.5v-2.4H7.7z"/>
	<path d="M50.8,238.4c1.4,0,1.6-0.4,1.7-1.3c0.1-1.8,0.2-3.8,0.2-5.6v-17.1c0-2.1,0-4.2-0.1-6.3c0-1.1-0.6-1.3-1.6-1.3h-3.4v-2.4   h15.5v2.4h-3.4c-1.3,0-1.6,0.5-1.6,1.3c-0.1,2.1-0.1,4.2-0.1,6.3v17.1c0,2.5,0.1,5.7,0.3,6.2c0.3,0.7,1.1,0.7,1.5,0.7h3.2v2.4H47.7   v-2.4H50.8z"/>
	<path d="M73.2,240.8h-8.1v-2.4h3.3c1.3,0,1.4-0.7,1.5-2.1c0.1-1.6,0.2-3.2,0.2-4.8v-17.1c0-5.9,0-6.8-0.3-7.2   c-0.3-0.3-0.6-0.4-0.8-0.4h-3.9v-2.4h15.3v2.4h-3.9c-0.9,0-1,0.5-1,1.3c-0.1,2.1-0.1,4.2-0.1,6.2v22.4c0,0.8,0.2,0.8,1.1,0.8h0.4   c10.8,0,11.7-0.6,12.5-1.5c0.7-0.8,0.8-2.2,1.1-4.2h2.2v8.6c0,0.3-0.1,0.5-0.4,0.5C90.5,240.9,88.6,240.8,73.2,240.8"/>
	<path d="M104.1,240.8h-8.5v-2.4h3.6c1,0,1.1-0.4,1.2-1.5c0.1-1.8,0.2-3.5,0.2-5.3v-17.1c0-0.2,0-6.3-0.1-6.8   c-0.2-0.7-0.8-0.8-1.4-0.8h-3.5v-2.4h8.1c2.7,0,5.6-0.2,8.3-0.2h0.2c6.7,0,11.9,1.3,15.9,5.7c2.6,2.9,4.2,6.9,4.2,11.6v0.1   c0,7-3.6,13.9-9.2,17.1c-3.3,1.8-7.2,2.3-10.9,2.3C109.4,241,106.7,240.8,104.1,240.8 M106.1,236.1c0,0.5,0,1.1,0.8,1.2   c2.1,0.4,4.1,0.7,6.2,0.7c3.9,0,8.9-1,11.6-7.1c1.1-2.4,1.6-5.1,1.6-7.8c0-7.2-3.8-12.4-9.1-14.4c-2.9-1.1-6-1.1-9-1.1h-0.9   c-1.1,0-1.3,0.5-1.3,1.3V236.1z"/>
	<path d="M155.9,222.5v0.2c3.7,3.8,4.9,6.4,9.9,14.9c0.4,0.6,0.7,0.8,1.7,0.8h2.3v2.4h-5.7c-2.1,0-3-0.5-4.2-2.4   c-4.2-6.3-4.7-9.9-8.5-13.9c-1.8-2-0.8-0.7-5.9-1.7l-0.1,0.1v9.6c0,5.7,0.1,5.9,1.9,5.9h3.1v2.4H135v-2.4h3.2   c1.4,0,1.6-0.4,1.7-1.3c0.1-1.8,0.2-3.8,0.2-5.6v-20.9c0-3.4-0.2-3.8-1.5-3.8H135v-2.4h7.8c2.9,0,5.8-0.2,8.6-0.2   c3.8,0,6.9,0.4,9.5,2.9c1.7,1.6,2.7,4,2.7,6.3v0.1C163.6,218.6,158.5,221.4,155.9,222.5 M153.1,207.4c-1.2-0.5-2.5-0.6-3.8-0.6   h-1.8c-1.1,0-2.1,0.1-2.1,1.6v11.3c0,0.6,0.1,0.8,2.3,1.2c0.6,0.1,1.3,0.2,2,0.2c5,0,7.8-3.6,7.8-7.2   C157.6,210.9,155.7,208.4,153.1,207.4"/>
	<path d="M179.8,240.8h-8v-2.4h3.3c1.3,0,1.4-0.7,1.5-2.1c0.1-1.6,0.2-3.2,0.2-4.8v-17.1c0-5.9,0-6.8-0.3-7.2   c-0.3-0.3-0.6-0.4-0.8-0.4h-4v-2.4h8c6.2,0,12.4,0,18.6-0.1h0.1c0.4,0,0.5,0.2,0.5,0.5v7.3h-2.2c-0.2-3.1-0.1-4-1.7-4.1   c-3.6-0.4-7.2-0.5-11-0.5h-0.5c-0.6,0-1.2,0.1-1.2,0.9v11.1h10.6c0.7,0,0.8-0.4,0.8-1.1v-2.7h2.3v10.5h-2.2v-3   c0-0.5-0.2-0.9-1.1-0.9h-10.5v14.1c0,0.4,0.1,1,0.8,1c0.4,0,7.8-0.4,11.6-0.6c2.2-0.1,2.4-1.4,3-5.3h2v9c0,0.3-0.1,0.5-0.4,0.5   C197.2,240.9,195.2,240.8,179.8,240.8"/>
	<path d="M210.1,232.6c0,5.2,0.1,5.8,1.6,5.8h3.4v2.4h-12.8v-2.4h3.4c1.2,0,1.4-0.5,1.4-1.3c0.1-1.8,0.2-3.8,0.2-5.6v-23   c0-0.5-0.1-0.5-0.7-1.2c-0.4-0.4-0.7-0.4-1.7-0.4h-2.6v-2.4h8.8c1,0,1.1,0.1,1.4,0.5c20.2,25.3,20.3,25.3,20.4,25.3   c0.1,0,0.3-0.1,0.3-0.4v-17c0-5.6-0.1-6-1.7-6h-3.3v-2.4H241v2.4h-3.2c-0.6,0-1.5,0.1-1.6,1.3c-0.1,1.9-0.2,3.8-0.2,5.7v6.1   c0,15,0.4,19.8,0.4,20.5c0,0.7-0.4,0.9-0.9,0.9H235c-0.9,0-1.1-0.5-1.5-1c-22.9-29.3-23-29.5-23.1-29.5c-0.1-0.1-0.1-0.1-0.1-0.1   c-0.1,0-0.2,0.1-0.2,0.3V232.6z"/>
	<path d="M248.4,203.5c2.2,0,3.9,1.7,3.9,4.1v0.1c0,3-2.6,6.3-6.1,7.6l-1-1.8c1-0.5,3.9-1.8,3.9-4.5l-0.3-0.1   c-0.4,0.4-1,0.6-1.5,0.6h-0.1c-1.4,0-2.4-1.2-2.4-2.6C244.8,204.8,246.4,203.5,248.4,203.5"/>
	<path d="M276,232.2c0-1.6-0.7-3.2-2-4.3c-2.1-1.9-4.5-2-9.4-4.2c-2.7-1.2-7.7-3.8-7.7-9.6c0-6.6,7-10.6,12.4-10.6   c3.5,0,6.8,1.6,9,3.3v8.7h-2.5c-0.4-7-5.3-8.2-8.1-8.2h-0.1c-4,0-5.9,2.8-5.9,5.5c0,2.4,1.7,3.5,2.6,4.1c5,2.9,12.2,3.7,15.2,8.8   c0.7,1.2,1.3,2.8,1.3,4.7c0,6.1-5.7,11.7-13.5,11.7c-6,0-9.6-3.5-10.1-4v-8.6l2.7-0.1c0.3,3.7,0.4,5.2,2.3,6.5c1.4,1.1,4,2.4,7,2.4   C273.8,238.3,276,235,276,232.2"/>
	<path d="M-32.6,291.2c1.4,0,1.6-0.4,1.7-1.3c0.1-1.8,0.2-3.8,0.2-5.6v-17.1c0-2.1,0-4.2-0.1-6.3c0-1.1-0.6-1.3-1.6-1.3h-3.4v-2.4   h15.5v2.4h-3.4c-1.3,0-1.6,0.5-1.6,1.3c-0.1,2.1-0.1,4.2-0.1,6.3v17.1c0,2.5,0.1,5.7,0.3,6.2c0.3,0.7,1.1,0.7,1.5,0.7h3.2v2.4   h-15.5v-2.4H-32.6z"/>
	<path d="M-10.5,285.4c0,5.2,0.1,5.8,1.6,5.8h3.4v2.4h-12.8v-2.4h3.4c1.2,0,1.4-0.5,1.4-1.3c0.1-1.8,0.2-3.8,0.2-5.6v-23   c0-0.5-0.1-0.5-0.7-1.2c-0.4-0.4-0.7-0.4-1.7-0.4h-2.6v-2.4h8.8c0.9,0,1.1,0.1,1.4,0.5C12.2,283,12.2,283,12.3,283   c0.1,0,0.3-0.1,0.3-0.4v-17c0-5.6-0.1-6-1.7-6H7.6v-2.4h12.8v2.4h-3.2c-0.6,0-1.5,0.1-1.6,1.3c-0.1,1.9-0.2,3.8-0.2,5.7v6.1   c0,15,0.4,19.8,0.4,20.5c0,0.7-0.4,0.9-0.9,0.9h-0.4c-0.9,0-1.1-0.5-1.5-1c-22.9-29.3-23-29.5-23.1-29.5c-0.1-0.1-0.1-0.1-0.1-0.1   c-0.1,0-0.2,0.1-0.2,0.3V285.4z"/>
	<path d="M50.9,259.7h-3.1v-2.4h12.7v2.4h-2.6c-1.2,0-1.6,0.2-2,0.6c-1.4,1.5-13.7,33.5-14.2,34.2c-0.2,0.2-0.4,0.3-0.5,0.3   c-0.5,0-0.6-0.5-0.8-0.9c-11.7-29.1-13-32.7-13.9-33.7c-0.4-0.4-0.8-0.5-1.6-0.5h-2.5v-2.4H37v2.4h-3.1c-0.4,0-1,0.1-1,0.6   c0,0.4,0.6,2.2,1.1,3.6l8.1,21.1h0.2c4.1-10.1,9.6-23.6,9.6-24.5C51.9,259.9,51.4,259.7,50.9,259.7"/>
	<path d="M70.4,293.7h-8v-2.4h3.3c1.3,0,1.4-0.7,1.5-2.1c0.1-1.6,0.2-3.2,0.2-4.8v-17.1c0-5.9,0-6.8-0.3-7.2   c-0.3-0.3-0.6-0.4-0.8-0.4h-4v-2.4h8c6.2,0,12.4,0,18.6-0.1h0.1c0.4,0,0.5,0.2,0.5,0.5v7.3h-2.2c-0.2-3.1-0.1-4-1.7-4.1   c-3.6-0.4-7.2-0.5-11-0.5h-0.5c-0.6,0-1.2,0.1-1.2,0.9v11.1h10.6c0.7,0,0.8-0.4,0.8-1.1v-2.7h2.3V279h-2.2v-3   c0-0.5-0.2-0.9-1.1-0.9H72.9v14.1c0,0.4,0.1,1,0.8,1c0.4,0,7.8-0.4,11.6-0.6c2.2-0.1,2.4-1.4,3-5.3h2v9c0,0.3-0.1,0.5-0.4,0.5   C87.9,293.8,85.9,293.7,70.4,293.7"/>
	<path d="M112.8,285.1c0-1.6-0.7-3.2-2-4.3c-2.1-1.9-4.5-2-9.4-4.2c-2.7-1.2-7.7-3.8-7.7-9.6c0-6.6,7-10.6,12.4-10.6   c3.5,0,6.8,1.6,9,3.3v8.7h-2.5c-0.4-7-5.3-8.2-8.1-8.2h-0.1c-4,0-5.9,2.8-5.9,5.5c0,2.4,1.7,3.5,2.6,4.1c5,2.9,12.2,3.7,15.2,8.8   c0.7,1.2,1.3,2.8,1.3,4.7c0,6.1-5.7,11.7-13.5,11.7c-6,0-9.6-3.5-10.1-4v-8.6l2.7-0.1c0.3,3.7,0.4,5.2,2.3,6.5c1.4,1.1,4,2.4,7,2.4   C110.6,291.1,112.8,287.9,112.8,285.1"/>
	<path d="M152.2,257.4v8.5h-2.4v-1c0-0.1-1.1-3.8-1.1-3.8c-2-0.3-4-0.4-5.9-0.4h-3c-0.8,0-1,0.3-1,1.1c-0.1,1.7-0.1,3.4-0.1,5.2   v17.4c0,6.7,0,6.9,1.7,6.9h4.3v2.4h-17.4v-2.4h4.3c0.6,0,1.4-0.1,1.5-1.2c0.1-1.9,0.2-3.8,0.2-5.7v-17.4c0-0.2,0-5.3-0.1-5.7   c-0.2-0.5-0.6-0.6-0.8-0.6h-3.1c-3,0-5.7,0.3-6.1,0.5c-0.6,0.3-0.5,0.7-0.6,4.6h-2.4v-8.3c0-0.4,0.1-0.6,0.4-0.6   c0.5,0,7.2,0.4,15.5,0.4h0.2c8.3,0,15.1-0.4,15.6-0.4C152.2,256.9,152.2,257.1,152.2,257.4"/>
	<path d="M162.7,261.9v22.5c0,2.4,0.1,5.6,0.2,6.1c0.2,0.7,0.9,0.7,1.2,0.7h3.6v2.4h-12.8v-2.4h3.4c1.2,0,1.4-0.5,1.4-1.3   c0.1-1.8,0.2-3.8,0.2-5.6v-23.6c0-0.5-0.1-1.1-0.9-1.1h-4.1v-2.4h11.6c0.3,0,0.5,0,0.7,0.7l9.5,25.7h0.2   c10.2-25.4,10.5-26,10.5-26.1c0.2-0.3,0.5-0.3,0.7-0.3h10.7v2.4h-4c-1,0-1.1,0.6-1.1,1.2v25.2c0,4.6,0.1,5.1,1.7,5.1h3.3v2.4h-15.5   v-2.4h3.3c0.9,0,1.5-0.2,1.5-1.3c0.1-1.8,0.2-3.8,0.2-5.6v-20.9c0-0.2-0.1-0.3-0.2-0.3c-0.2,0-0.2,0.2-0.3,0.3   c-11.7,29.9-11.7,29.9-12,30.2c-0.2,0.2-0.4,0.3-0.7,0.3c-0.6,0-0.9-0.5-1.1-1c-11.2-31.5-11-31.5-11.3-31.5   C162.8,261.5,162.7,261.6,162.7,261.9"/>
	<path d="M208.9,293.7h-8v-2.4h3.3c1.3,0,1.4-0.7,1.5-2.1c0.1-1.6,0.2-3.2,0.2-4.8v-17.1c0-5.9,0-6.8-0.3-7.2   c-0.3-0.3-0.6-0.4-0.8-0.4h-4v-2.4h8c6.2,0,12.4,0,18.6-0.1h0.1c0.4,0,0.5,0.2,0.5,0.5v7.3h-2.2c-0.2-3.1-0.1-4-1.7-4.1   c-3.6-0.4-7.2-0.5-11-0.5h-0.5c-0.6,0-1.2,0.1-1.2,0.9v11.1H222c0.7,0,0.8-0.4,0.8-1.1v-2.7h2.3V279h-2.2v-3c0-0.5-0.2-0.9-1.1-0.9   h-10.5v14.1c0,0.4,0.1,1,0.8,1c0.4,0,7.8-0.4,11.6-0.6c2.2-0.1,2.4-1.4,3-5.3h2v9c0,0.3-0.1,0.5-0.4,0.5   C226.3,293.8,224.4,293.7,208.9,293.7"/>
	<path d="M239.2,285.4c0,5.2,0.1,5.8,1.6,5.8h3.4v2.4h-12.8v-2.4h3.4c1.2,0,1.4-0.5,1.4-1.3c0.1-1.8,0.2-3.8,0.2-5.6v-23   c0-0.5-0.1-0.5-0.7-1.2c-0.4-0.4-0.7-0.4-1.7-0.4h-2.6v-2.4h8.8c1,0,1.1,0.1,1.4,0.5C261.9,283,261.9,283,262,283   c0.1,0,0.3-0.1,0.3-0.4v-17c0-5.6-0.1-6-1.7-6h-3.3v-2.4h12.8v2.4h-3.2c-0.6,0-1.5,0.1-1.6,1.3c-0.1,1.9-0.2,3.8-0.2,5.7v6.1   c0,15,0.4,19.8,0.4,20.5c0,0.7-0.4,0.9-0.9,0.9h-0.4c-0.9,0-1.1-0.5-1.5-1c-22.9-29.3-23-29.5-23.1-29.5c-0.1-0.1-0.1-0.1-0.1-0.1   c-0.1,0-0.2,0.1-0.2,0.3V285.4z"/>
	<path d="M304.9,257.4v8.5h-2.4v-1c0-0.1-1.1-3.8-1.1-3.8c-2-0.3-4-0.4-5.9-0.4h-3c-0.8,0-1,0.3-1,1.1c-0.1,1.7-0.1,3.4-0.1,5.2   v17.4c0,6.7,0,6.9,1.7,6.9h4.3v2.4H280v-2.4h4.3c0.6,0,1.4-0.1,1.5-1.2c0.1-1.9,0.2-3.8,0.2-5.7v-17.4c0-0.2,0-5.3-0.1-5.7   c-0.2-0.5-0.6-0.6-0.8-0.6h-3.1c-3,0-5.7,0.3-6.1,0.5c-0.6,0.3-0.5,0.7-0.6,4.6h-2.4v-8.3c0-0.4,0.1-0.6,0.4-0.6   c0.5,0,7.2,0.4,15.5,0.4h0.2c8.3,0,15.1-0.4,15.6-0.4C304.8,256.9,304.9,257.1,304.9,257.4"/>
	<path d="M332.8,291.2h3.6v2.4h-15.7v-2.4h3.3c0.9,0,1.5-0.2,1.5-1.3c0.1-1.8,0.2-3.8,0.2-5.6v-17.1c0-5.9,0-6.8-0.3-7.2   c-0.3-0.3-0.6-0.4-0.8-0.4h-4v-2.4h8c6.2,0,12.4,0,18.6-0.1h0.1c0.4,0,0.5,0.2,0.5,0.5v7.3h-2.2c-0.2-3.1-0.1-4-1.7-4.1   c-3.6-0.4-7.2-0.5-11-0.5h-0.5c-0.6,0-1.2,0.1-1.2,0.9v11.1h10.6c0.7,0,0.8-0.4,0.8-1.1v-2.7h2.3V279h-2.2v-3   c0-0.5-0.2-0.9-1.1-0.9h-10.5v9.2C331.2,290.7,331.1,291.2,332.8,291.2"/>
	<path d="M365.9,257.3v2.4h-3.7c-1,0-1.3,0.4-1.3,1.2c-0.1,2.1-0.1,4.2-0.1,6.3v12.1l0.3,4.5c1,5.3,5.3,7.3,10.3,7.3   c9,0,9.2-6.5,9.2-9.9v-14c0-7-0.2-7-0.6-7.3c-0.3-0.2-0.6-0.3-1.2-0.3h-3.2v-2.4h13.2v2.4h-3.2c-1,0-1.6,0.2-1.6,1.3   c-0.1,2.1-0.2,4.2-0.2,6.2v13.1c0,4.1-0.1,10.6-7.4,13.4c-2,0.8-4,1.1-6.2,1.1c-4,0-9.7-1.3-12.6-5.6c-1.2-1.8-2-3.9-2.1-6.1   l-0.2-6.4v-9.5c0-7.3-0.1-7-0.4-7.3c-0.3-0.2-0.6-0.3-0.9-0.3h-3.7v-2.4H365.9z"/>
	<path d="M398.6,285.4c0,5.2,0.1,5.8,1.6,5.8h3.4v2.4h-12.8v-2.4h3.4c1.2,0,1.4-0.5,1.4-1.3c0.1-1.8,0.2-3.8,0.2-5.6v-23   c0-0.5-0.1-0.5-0.7-1.2c-0.4-0.4-0.7-0.4-1.7-0.4h-2.6v-2.4h8.8c1,0,1.1,0.1,1.4,0.5c20.2,25.3,20.3,25.3,20.4,25.3   c0.1,0,0.3-0.1,0.3-0.4v-17c0-5.6-0.1-6-1.7-6h-3.3v-2.4h12.8v2.4h-3.2c-0.6,0-1.5,0.1-1.6,1.3c-0.1,1.9-0.2,3.8-0.2,5.7v6.1   c0,15,0.4,19.8,0.4,20.5c0,0.7-0.4,0.9-0.9,0.9h-0.4c-0.9,0-1.1-0.5-1.5-1c-22.9-29.3-23-29.5-23.1-29.5c-0.1-0.1-0.1-0.1-0.1-0.1   c-0.1,0-0.2,0.1-0.2,0.3V285.4z"/>
	<path d="M439.9,293.7h-8.5v-2.4h3.6c0.9,0,1.1-0.4,1.2-1.5c0.1-1.8,0.2-3.5,0.2-5.3v-17.1c0-0.2,0-6.3-0.1-6.8   c-0.2-0.7-0.8-0.8-1.4-0.8h-3.5v-2.4h8.1c2.7,0,5.6-0.2,8.3-0.2h0.2c6.7,0,11.9,1.3,15.9,5.7c2.6,2.9,4.2,6.9,4.2,11.6v0.1   c0,7-3.6,13.9-9.2,17.1c-3.3,1.8-7.2,2.3-10.9,2.3C445.2,293.9,442.6,293.7,439.9,293.7 M441.9,289c0,0.5,0,1.1,0.8,1.2   c2.1,0.4,4.1,0.7,6.2,0.7c3.9,0,8.9-1,11.6-7.1c1.1-2.4,1.6-5.1,1.6-7.8c0-7.2-3.8-12.4-9.1-14.4c-2.9-1.1-6-1.1-9-1.1h-0.9   c-1.1,0-1.3,0.5-1.3,1.3V289z"/>
	<path d="M-23.7,344.1h3.6v2.4h-15.7v-2.4h3.3c0.9,0,1.5-0.2,1.5-1.3c0.1-1.8,0.2-3.8,0.2-5.6v-17.1c0-5.9,0-6.8-0.3-7.2   c-0.3-0.3-0.6-0.4-0.8-0.4h-4v-2.4h8c6.2,0,12.4,0,18.6-0.1h0.1c0.4,0,0.5,0.2,0.5,0.5v7.3h-2.2c-0.2-3.1-0.1-4-1.7-4.1   c-3.6-0.4-7.2-0.5-11-0.5h-0.5c-0.6,0-1.2,0.1-1.2,0.9v11.1h10.6c0.7,0,0.8-0.4,0.8-1.1v-2.7h2.3v10.5h-2.2v-3   c0-0.5-0.2-0.9-1.1-0.9h-10.5v9.2C-25.3,343.5-25.4,344.1-23.7,344.1"/>
	<path d="M14.9,309.2c11.6,0,18.6,9.3,18.7,18.6v0.1c0,10-8.3,19.8-19.7,19.8c-9.1,0-19.7-6.2-19.7-18.5v-0.1   C-5.8,318.7,2.7,309.2,14.9,309.2 M15.4,344.3c8.1,0,11.8-8.5,11.8-15.1c0-9.6-7-16.7-14.1-16.7H13c-6.5,0.1-12.6,6.2-12.6,15   C0.4,337.6,8.4,344.3,15.4,344.3"/>
	<path d="M51.8,310.1v2.4h-3.7c-1,0-1.3,0.4-1.3,1.2c-0.1,2.1-0.1,4.2-0.1,6.3v12.1l0.3,4.5c1,5.3,5.3,7.3,10.3,7.3   c9,0,9.2-6.5,9.2-9.9v-14c0-7-0.2-7-0.6-7.3c-0.3-0.2-0.6-0.3-1.2-0.3h-3.2v-2.4h13.2v2.4h-3.2c-1,0-1.6,0.2-1.6,1.3   c-0.1,2.1-0.2,4.2-0.2,6.2v13.1c0,4.1-0.1,10.6-7.4,13.4c-2,0.8-4,1.1-6.2,1.1c-4,0-9.7-1.3-12.6-5.6c-1.2-1.8-2-3.9-2.1-6.1   l-0.2-6.4v-9.5c0-7.3-0.1-7-0.4-7.3c-0.3-0.2-0.6-0.3-1-0.3h-3.7v-2.4H51.8z"/>
	<path d="M84.5,338.3c0,5.2,0.1,5.8,1.6,5.8h3.4v2.4H76.7v-2.4h3.4c1.2,0,1.4-0.5,1.4-1.3c0.1-1.8,0.2-3.7,0.2-5.6v-23   c0-0.5-0.1-0.5-0.7-1.2c-0.4-0.4-0.7-0.4-1.7-0.4h-2.6v-2.4h8.8c1,0,1.1,0.1,1.4,0.5c20.2,25.3,20.3,25.3,20.4,25.3   c0.1,0,0.3-0.1,0.3-0.4v-17c0-5.5-0.1-6-1.7-6h-3.3v-2.4h12.8v2.4h-3.2c-0.6,0-1.5,0.1-1.6,1.3c-0.1,1.9-0.2,3.8-0.2,5.7v6.1   c0,15,0.4,19.8,0.4,20.5c0,0.7-0.4,0.9-0.9,0.9h-0.4c-0.9,0-1.1-0.5-1.5-1c-22.9-29.3-23-29.5-23.1-29.5c-0.1-0.1-0.1-0.1-0.1-0.1   c-0.1,0-0.2,0.1-0.2,0.3V338.3z"/>
	<path d="M125.9,346.5h-8.5v-2.4h3.6c1,0,1.1-0.4,1.2-1.5c0.1-1.8,0.2-3.5,0.2-5.3v-17.1c0-0.2,0-6.3-0.1-6.8   c-0.2-0.7-0.8-0.8-1.4-0.8h-3.5v-2.4h8.1c2.7,0,5.5-0.2,8.3-0.2h0.2c6.7,0,11.9,1.3,15.9,5.7c2.6,2.9,4.2,6.9,4.2,11.6v0.1   c0,7-3.6,13.9-9.2,17.1c-3.3,1.8-7.2,2.3-10.9,2.3C131.2,346.7,128.5,346.5,125.9,346.5 M127.8,341.8c0,0.5,0,1.1,0.8,1.2   c2.1,0.4,4.1,0.7,6.2,0.7c3.9,0,8.9-1,11.6-7.1c1.1-2.4,1.6-5.1,1.6-7.8c0-7.2-3.8-12.4-9.1-14.4c-2.9-1.1-6-1.1-9-1.1h-0.9   c-1.1,0-1.3,0.5-1.3,1.3V341.8z"/>
	<path d="M175,309.5c0.2,0,0.5,0.1,0.6,0.4c14,34.3,13.5,33.7,14.5,34.1l1.1,0.1h1.7v2.4h-14v-2.4h3.2c0.4,0,1.2,0,1.2-0.7   c0-0.8-1.2-3.6-3.3-8.9h-12.8c-3.3,8.3-3.3,8.5-3.3,9c0,0.5,0.4,0.6,1,0.6h3.6v2.4h-13.2v-2.4h3c1.3,0,1.7-0.3,3.3-4.2   c12.2-29.8,12.3-30,12.4-30.1c0.2-0.2,0.3-0.3,0.7-0.3H175z M168.3,331.9h10.4l0.2-0.2l-5.2-13.5h-0.2l-5.3,13.4L168.3,331.9z"/>
	<path d="M223.8,310.2v8.5h-2.4v-1c0-0.1-1.1-3.8-1.1-3.8c-2-0.3-4-0.4-5.9-0.4h-3c-0.8,0-1,0.3-1,1.1c-0.1,1.7-0.1,3.4-0.1,5.2   v17.4c0,6.7,0,6.9,1.7,6.9h4.3v2.4h-17.4v-2.4h4.3c0.6,0,1.4-0.1,1.5-1.2c0.1-1.9,0.2-3.8,0.2-5.7v-17.4c0-0.2,0-5.3-0.1-5.7   c-0.2-0.5-0.6-0.6-0.8-0.6h-3.1c-3,0-5.7,0.3-6.1,0.5c-0.6,0.3-0.5,0.7-0.6,4.7h-2.4v-8.3c0-0.4,0.1-0.6,0.4-0.6   c0.5,0,7.2,0.4,15.5,0.4h0.2c8.3,0,15.1-0.4,15.6-0.4C223.7,309.8,223.8,309.9,223.8,310.2"/>
	<path d="M229.6,344.1c1.4,0,1.6-0.4,1.7-1.3c0.1-1.8,0.2-3.8,0.2-5.6v-17.1c0-2.1,0-4.2-0.1-6.3c0-1.1-0.6-1.3-1.6-1.3h-3.4v-2.4   H242v2.4h-3.4c-1.3,0-1.6,0.5-1.6,1.3c-0.1,2.1-0.1,4.2-0.1,6.3v17.1c0,2.5,0.1,5.7,0.3,6.2c0.3,0.7,1.1,0.7,1.5,0.7h3.2v2.4h-15.5   v-2.4H229.6z"/>
	<path d="M265.5,309.2c11.6,0,18.6,9.3,18.7,18.6v0.1c0,10-8.3,19.8-19.7,19.8c-9.1,0-19.7-6.2-19.7-18.5v-0.1   C244.8,318.7,253.3,309.2,265.5,309.2 M266.1,344.3c8.1,0,11.8-8.5,11.8-15.1c0-9.6-7-16.7-14.1-16.7h-0.1   c-6.5,0.1-12.6,6.2-12.6,15C251,337.6,259,344.3,266.1,344.3"/>
	<path d="M294.7,338.3c0,5.2,0.1,5.8,1.6,5.8h3.4v2.4h-12.8v-2.4h3.4c1.2,0,1.4-0.5,1.4-1.3c0.1-1.8,0.2-3.7,0.2-5.6v-23   c0-0.5-0.1-0.5-0.7-1.2c-0.4-0.4-0.7-0.4-1.7-0.4h-2.6v-2.4h8.8c1,0,1.1,0.1,1.4,0.5c20.2,25.3,20.3,25.3,20.4,25.3   s0.3-0.1,0.3-0.4v-17c0-5.5-0.1-6-1.7-6h-3.3v-2.4h12.8v2.4h-3.2c-0.6,0-1.5,0.1-1.6,1.3c-0.1,1.9-0.2,3.8-0.2,5.7v6.1   c0,15,0.4,19.8,0.4,20.5c0,0.7-0.4,0.9-0.9,0.9h-0.4c-0.9,0-1.1-0.5-1.5-1c-22.9-29.3-23-29.5-23.1-29.5c-0.1-0.1-0.1-0.1-0.1-0.1   c-0.1,0-0.2,0.1-0.2,0.3V338.3z"/>
</g>
</svg>